<svg id="图层_1" data-name="图层 1" xmlns="http://www.w3.org/2000/svg" viewBox="0 0 30 30"><defs><style>.cls-1{fill:#e6e6e6;}</style></defs><title>icon</title><path class="cls-1" d="M17.18,15.49a3.82,3.82,0,0,0-1-.59A5.59,5.59,0,0,0,15,14.59a7.68,7.68,0,0,0-1.27-.1,8.57,8.57,0,0,0-2.2.26,6.47,6.47,0,0,0-1.66.68,4.18,4.18,0,0,0-1.14.95,3.27,3.27,0,0,0-.61,1.08A2.23,2.23,0,0,0,8,18.51a3,3,0,0,0,.33,1,3.35,3.35,0,0,0,.67.83,3.59,3.59,0,0,0,.91.6,6.42,6.42,0,0,0,1.88.51,8.63,8.63,0,0,0,1.83,0,8.1,8.1,0,0,0,1.59-.34,5.39,5.39,0,0,0,1.17-.53,4.77,4.77,0,0,0,.85-.71,4.11,4.11,0,0,0,.69-1,3,3,0,0,0,.3-1.19,2.47,2.47,0,0,0-.32-1.29A3.67,3.67,0,0,0,17.18,15.49ZM15.75,18.6a5.58,5.58,0,0,1-.31.59,3,3,0,0,1-.46.56,3.1,3.1,0,0,1-.63.46,3.35,3.35,0,0,1-.91.3,3.42,3.42,0,0,1-1.85-.18,2.86,2.86,0,0,1-1.39-1.18A4.27,4.27,0,0,1,10,18,2.31,2.31,0,0,1,10.25,17a2.51,2.51,0,0,1,.64-.81,3.4,3.4,0,0,1,1-.62,3.9,3.9,0,0,1,1.19-.27,2.81,2.81,0,0,1,1.24.2,5.71,5.71,0,0,1,.61.29,1.79,1.79,0,0,1,.52.44,2.17,2.17,0,0,1,.28.48,2.46,2.46,0,0,1,.17.62,3,3,0,0,1,0,.67A1.48,1.48,0,0,1,15.75,18.6Z"/><path class="cls-1" d="M11.91,17.39a1,1,0,0,0-.68.37,1.35,1.35,0,0,0-.27.69,1.12,1.12,0,0,0,.15.67.75.75,0,0,0,.62.34,1.1,1.1,0,0,0,.92-.29,1.16,1.16,0,0,0,.33-.76,1,1,0,0,0-.24-.75A.87.87,0,0,0,11.91,17.39Z"/><path class="cls-1" d="M15,.47A14.53,14.53,0,1,0,29.53,15,14.54,14.54,0,0,0,15,.47Zm6,17.94a3.94,3.94,0,0,1-.5.93,6.1,6.1,0,0,1-1.24,1.29,7.91,7.91,0,0,1-1.44.89,8.71,8.71,0,0,1-1.49.56q-.75.2-1.41.3c-.44.06-.84.1-1.19.12l-.81,0c-.2,0-.45,0-.78,0a10,10,0,0,1-1.07-.16A9.55,9.55,0,0,1,9.85,22a6.43,6.43,0,0,1-1.26-.57,6.82,6.82,0,0,1-1.17-.87,4.89,4.89,0,0,1-.94-1.24,3.31,3.31,0,0,1-.35-1A8.48,8.48,0,0,1,6,16.94a3.17,3.17,0,0,1,.12-.8,4.36,4.36,0,0,1,.43-1,7.38,7.38,0,0,1,.84-1.2,15.35,15.35,0,0,1,1.35-1.42,14.63,14.63,0,0,1,1.67-1.34,6.92,6.92,0,0,1,1.85-.91,3.12,3.12,0,0,1,1-.18,1.74,1.74,0,0,1,.9.18,3.65,3.65,0,0,1,.31.36,1.07,1.07,0,0,1,.19.46,1,1,0,0,1,0,.43l-.09.42c0,.14-.06.28-.08.41a.69.69,0,0,0,0,.35,1.86,1.86,0,0,0,.53,0,3.65,3.65,0,0,0,.5-.15l.5-.18a2.23,2.23,0,0,1,.52-.15,4.22,4.22,0,0,1,.86-.07,2.37,2.37,0,0,1,.78.12,1.28,1.28,0,0,1,.57.35,1,1,0,0,1,.27.6.84.84,0,0,1,0,.42,3,3,0,0,1-.14.36c0,.12-.08.23-.11.35a.68.68,0,0,0,0,.37.44.44,0,0,0,.23.21,4.54,4.54,0,0,0,.43.19l.51.21a2.51,2.51,0,0,1,.46.26,1.87,1.87,0,0,1,.61.82,2.34,2.34,0,0,1,.14,1A3.46,3.46,0,0,1,21,18.41Zm.21-4.56a.38.38,0,0,1-.36.18.52.52,0,0,1-.35-.23.9.9,0,0,1-.16-.57,2.09,2.09,0,0,0-.55-1.51,2,2,0,0,0-1.47-.57.55.55,0,0,1-.45-.17.53.53,0,0,1-.15-.36.5.5,0,0,1,.16-.36.54.54,0,0,1,.44-.17,3.08,3.08,0,0,1,2.27.76,3.13,3.13,0,0,1,.78,2.32A1.15,1.15,0,0,1,21.22,13.85Zm2.48-.93a.77.77,0,0,1-.56.27.78.78,0,0,1-.55-.22,1,1,0,0,1-.26-.72A2.31,2.31,0,0,0,22,11,3.55,3.55,0,0,0,21,10a4.79,4.79,0,0,0-1.33-.69,5,5,0,0,0-1.53-.25,1,1,0,0,1-.74-.24.69.69,0,0,1-.22-.54.75.75,0,0,1,.3-.54,1.21,1.21,0,0,1,.81-.24,7.45,7.45,0,0,1,2.2.31,5.7,5.7,0,0,1,1.79.91,4.3,4.3,0,0,1,1.2,1.45A4.23,4.23,0,0,1,24,12.12,1.13,1.13,0,0,1,23.7,12.92Z"/></svg>