<svg id="图层_1" data-name="图层 1" xmlns="http://www.w3.org/2000/svg" viewBox="0 0 30 30"><defs><style>.cls-1{fill:#e6e6e6;}</style></defs><title>icon</title><path class="cls-1" d="M9.58,10.39a.92.92,0,1,0,1.24-.25A1,1,0,0,0,9.58,10.39Z"/><path class="cls-1" d="M16.1,15.68a.73.73,0,0,0,1.33-.06.74.74,0,0,0-.25-.81A.73.73,0,0,0,16.1,15.68Z"/><path class="cls-1" d="M14.48,11.78a.92.92,0,0,0,.79-1.64,1,1,0,0,0-.93,0A.92.92,0,0,0,14.48,11.78Z"/><path class="cls-1" d="M15,.47A14.53,14.53,0,1,0,29.53,15,14.54,14.54,0,0,0,15,.47ZM12.55,18.32a9,9,0,0,1-1.83-.25l-.56-.14-1.05.56-1.06.57.3-.87c.34-1,.34-1,.11-1.16-4.16-2.7-2.41-8.6,2.81-9.54,3.35-.59,6.77,1.24,7.57,4.06l.11.36h-.5c-3.69,0-6.52,3-5.7,6l.1.4Zm9.53,1.92c-.36.26-.35.2-.08,1a4.69,4.69,0,0,1,.2.73,6,6,0,0,1-.87-.42l-.85-.46-.4.11c-3.4.93-6.94-1.15-7.08-4.17-.1-2.26,1.69-4.23,4.28-4.7C22.58,11.41,26.18,17.31,22.08,20.24Z"/><path class="cls-1" d="M19.7,15.06a.71.71,0,0,0,1,1,.7.7,0,0,0,.12-1.14A.72.72,0,0,0,19.7,15.06Z"/></svg>