<svg id="图层_1" data-name="图层 1" xmlns="http://www.w3.org/2000/svg" viewBox="0 0 30 30"><defs><style>.cls-1{fill:#e6e6e6;}</style></defs><title>icon</title><polygon class="cls-1" points="18.27 20.21 19.77 19.21 20.95 19.21 20.95 10.9 17.57 10.9 17.57 19.21 17.92 19.21 18.27 20.21"/><path class="cls-1" d="M15,.47A14.53,14.53,0,1,0,29.53,15,14.54,14.54,0,0,0,15,.47ZM15.7,16H12.55a9.46,9.46,0,0,1-.24,1.41l.43-.33,2.15,2.44v0a3.26,3.26,0,0,1-.1,1.9l-.1.24L12,18.47a16.24,16.24,0,0,1-.87,2.16,2.93,2.93,0,0,1-2.68,1.74l-.39,0c-.3,0-.44-.06-.49-.18a.25.25,0,0,1,.1-.27,8.23,8.23,0,0,0,2.51-3.05c.06-.13.13-.27.21-.41A8.41,8.41,0,0,0,11.05,16H7.74l0-.18a2.3,2.3,0,0,1,.61-1.3l0,0h2.8c0-.68-.05-2.79-.06-3.43H10a2.3,2.3,0,0,1-1.38,1.68l0,0s-.56.25-.77.06a.22.22,0,0,1,0-.26,1.23,1.23,0,0,1,.12-.25A13.36,13.36,0,0,0,9,9.37,2.46,2.46,0,0,1,10.18,7.7,1.68,1.68,0,0,1,11,7.49h.26l-.13.22a7.89,7.89,0,0,0-.58,1.86H14.9c.29,0,.38.4.42.69a4.74,4.74,0,0,1,0,.58V11h-2.6c0,1.36-.09,2.54-.13,3.43h2.63l.05.06a2.15,2.15,0,0,1,.38,1.29Zm6.75,4.76H19.84l-2.11,1.42-.5-1.42H16V9.35h6.41Z"/></svg>